<svg height="24" viewBox="0 0 6.3499999 6.3499999" width="24"
  xmlns="http://www.w3.org/2000/svg">
  <path fill="#000" d="m5.8412427.76873052-.052317.001436c-.028773.0007902-.1547835.00057114-.2800203-.00050463-.388263-.003337-.7798743-.002738-.9384089.001455l-.1517957.004023-.03105.0137866c-.017078.007588-.035708.0194624-.041401.0263809l-.01035.0125939.00146.0445543c.0008098.0245134.00662.0580538.012917.0745334l.011442.0299587-.00546.0123517c-.00869.0196601-.016869.19523051-.01969.42288141l-.00261.2104601-.0077.019548c-.00424.010755-.00551.023112-.00283.027452s.00571.080102.00673.1683519l.00186.1604479-.013443.00718-.013423.0072-.046717-.00756-.046737-.00756-.1202401.00859-.1202194.00861-.012897.012897-.012897.012897.00548.07043c.00301.038737.005.0875.00443.1083734-.000575.020873-.0012.070151-.00135.1095055l-.0002738.071562.010451.026138.010471.026138.018476.00756.018477.00756.1532916.0017.1532915.0017.012311.012331.012311.012311.00121.1084345c.0006729.059635.0044.1387398.00829.1757911l.00708.067357.011866.020094c.00652.011044.018306.023448.026199.027574l.014332.00748.093152-.00495c.051233-.00273.15414-.00508.2286742-.00524l.1355226-.0002738.014616-.013201c.00804-.00726.017971-.024336.022055-.037964l.00742-.024784-.00382-.1241817c-.0021-.068297-.00571-.14143-.00805-.1625302l-.00422-.038368.010936-.00908.010936-.00908.039642-.00146c.021807-.0008019.1263101-.00559.2322117-.010653l.1925495-.0092.079992.00756c.044003.00416.1579842.007.2532759.00629l.1732441-.00131.011826-.0098c.0065-.0054.017228-.02089.023814-.034426l.011967-.024622-.000403-.1843828-.0004029-.1843827-.018254-.018315-.018274-.018295-.092141-.00621-.092141-.00623-.072451.0072c-.039848.00396-.2178246.00809-.3955102.00918l-.3230588.00196-.00687-.012857-.00689-.012836.00156-.15313c.0008528-.084214.00166-.1655236.00182-.1807036.0008137-.08443-.00919-.2686379-.016799-.3090292l-.00881-.046818.010774-.010795.010795-.010775.3164891-.00156.3164684-.00154.020701.00606c.011385.00334.082808.00857.1587095.011603l.1379887.00552.017264-.011745.017244-.011765.015606-.043261.015586-.04326.00128-.1044319c.0023-.18952779-.013001-.26104197-.060706-.2836796z"/>
  <path fill="#000" d="m4.0574984 3.559625-.010027.019669-.010007.01969-.00566.186303c-.00932.3074712.00258 1.2196686.016192 1.2416972.0023.00373.00636.030162.009.058745.00264.028584.00973.079609.015748.1133869l.010956.061414.020155.043058c.011083.023685.022263.052693.024844.064446.00258.011753.0076.023151.011159.02535.00356.0022.012312.015439.019467.029413.048761.095235.2382822.2634461.317338.2816578.00985.00227.030344.00968.045524.016476.093268.041726.1346284.051534.2621908.062141l.0000203.0000203c.1210949.01007.3423423-.00671.3864131-.029312.011385-.00584.031575-.012791.044857-.015424.013283-.00263.06788-.026422.1213316-.052863l.097174-.048072.078172-.079061c.042991-.043488.081545-.079145.085672-.079223.00413-.0000782.015256-.00622.024743-.013645l.017264-.013504.096588-.0001956.096608-.0001956.022237-.013564c.036827-.022455.0361-.00917.040167-.7315873.00189-.3358631.00618-.6556974.00952-.7107253.00334-.055028.00561-.1591723.00503-.2314438l-.00105-.1314193-.012068-.018396-.012048-.018396-.029292-.00788c-.016109-.00436-.046394-.00644-.067296-.00467-.020903.00177-.06107.0003521-.08925-.00309l-.051225-.00629-.048779.00756-.04878.00758-.04605-.00823-.04605-.00825-.03287.016536-.03287.016536-.00912.031051-.00912.031051.00427.045565.00427.045586-.00867.051023-.00865.051023-.0001956.1931966c-.0000782.1062618.0007003.2723957.00178.3691697.00108.096774.0001565.2498077-.00208.3400801l-.00404.164127-.012917.029069c-.065034.146553-.1480747.2224641-.3118317.285017l-.065558.025047-.092666-.0009506c-.050972-.0005242-.096009-.00362-.100065-.00687-.00406-.00325-.016674-.008-.028059-.010553-.011385-.00255-.042449-.017962-.069014-.034244l-.048294-.029615-.030141-.03942c-.016579-.021689-.036928-.058865-.045221-.082599l-.01508-.043159.00485-.018153.00487-.018173-.010552-.029676-.010532-.029656-.00253-.1759733c-.00312-.2175215-.00245-.3493767.00218-.4347073.00505-.093017.00552-.126613.00275-.1931962-.00342-.082.014137-.4402292.023894-.4878329l.00451-.022075-.018436-.017102-.018456-.017102-.042654-.00441c-.023461-.00242-.1001045-.00146-.1703129.00212l-.127659.00651-.044837-.0055c-.024667-.0030236-.053153-.0076236-.063293-.0102116z"/>
  <path fill="#000" d="m3.398198.72799693-.1521595.004629c-.083685.002547-.1911134.005127-.2387414.005741l-.086602.001111-.018315.0119876-.018295.0120079-.00473.0251479-.00471.0251475.00843.0318392c.00464.0175056.011022.0582048.014191.0904629l.00576.0586644-.0072.0341031-.0072.034103.00877.046556.00879.046576-.00807.040067-.00807.040087.00319.1345525c.00501.2108978.00542.383408.00111.4623211-.00734.134479-.018566.2366959-.028018.2549737-.012041.023285-.031212.097058-.031212.1200985v.017729l-.041219.044049c-.022663.024227-.060689.05713-.0845.073118l-.043281.02907-.1028953-.00374-.1028952-.00374-.028241-.014514c-.0293239-.01508843-.1419197-.12170933-.1420019-.13449343-.0000256-.00401-.010906-.02886-.024177-.055207-.013271-.026348-.024145-.056238-.024157-.066427-.0000117-.010189-.0035-.02726-.00774-.037944l-.0077-.019427.00184-.3277487c.00101-.1802655.00216-.4602826.00255-.6222437l.0006789-.29447453-.0145145-.01946746-.0145347-.0194874-.1200176-.00485151c-.0660174-.00266789-.1723014-.00576688-.2361739-.0068935l-.1161362-.002062-.00944.0129178-.00944.0129174.0005054.10439115c.0006541.13484995-.00736.47365995-.011361.48013095-.00169.00274-.00486.1320188-.00701.287278-.008.5762526-.017481.6182556-.1538779.6812716l-.032506.01502-.089695-.0000391-.089715-.0000199-.037944-.0131c-.020873-.0072-.044161-.016956-.051751-.021671-.00759-.00471-.021532-.010894-.03097-.013726-.029292-.0088-.067144-.037572-.092869-.070591l-.0246668-.0316566-.0139283-.0467574-.0139282-.0467779-.0044676-.2090252c-.00246-.1149689-.0041-.2338922-.00364-.2642527.0004632-.03036.00236-.2088879.00418-.3967432.00183-.1878554.00532-.36360829.00776-.3905572l.00445-.0490017-.021731-.0182747c-.011947-.0100531-.023805-.0184226-.026361-.0186182-.00256-.00019559-.11884401-.001091-.25843085-.002022l-.25380158-.001698-.0107949.0119269-.0107949.0119269.001354.0815278c.002961.1793456.00097836.8296226-.002992.9819929l-.004225.1621665.0112801.079344c.006207.043643.0123624.1111353.0136655.1499966.001303.038861.00674.085437.0120887.1035016.005348.018065.008267.042677.006489.054682l-.003234.021832.0221356.064426c.0121694.035432.0291268.07528.0376811.088563.008554.013283.0225706.036003.0311516.050477s.0268603.033515.0406325.04233c.0137722.00882.0343618.026018.045747.038227.0423236.045384.26978116.166696.32995213.1759734.015873.00245.047477.0101.070248.017001.09904.030015.2352432.038722.4097617.026219.1051646-.00753.2670918-.037751.2871566-.05359.00379-.003.026799-.013503.051124-.023349l.044231-.017911.043159-.041441c.05076-.048742.048767-.048319.079203-.016839.013078.013527.03993.037073.059655.052317l.035862.027715.05729.020417c.031508.011229.07592.027687.09869.036569l.041401.016152.086238.00418c.047438.0023.1033293.00855.1242021.013868.048441.012342.066832.013006.096649.00352.013258-.00422.053601-.01028.089654-.013483.1885154-.016756.2415671-.028464.313962-.069298.1025135-.057823.1777121-.1194069.2336067-.1912759.041701-.053619.1007617-.147734.1009143-.1608117.0000782-.00621.010995-.044813.024278-.085793.013283-.040981.024157-.085027.024157-.097882v-.023389l.016455-.028827.016455-.028827.00796-.1207455c.00438-.066414.011211-.1354655.015202-.1534535l.00726-.032708-.0007276-.1328946c-.0004029-.073094.0002347-.3254149.00144-.5607084l.00218-.42781387-.0092-.0212462-.0092-.0212665-.025289-.0120685z"/>
  <path fill="#000" d="m2.6039536 3.51125-.072067.011583c-.039629.00637-.084646.016206-.1000444.021873-.015399.00567-.052825.018227-.083185.027897-.059042.018804-.1114042.042937-.1449017.066811-.011385.00811-.032407.020707-.046697.027978-.01429.00727-.036998.02669-.050477.043139l-.024501.029898h-.018821-.0188l-.0307455-.0315957c-.0473124-.0485874-.1849881-.1282852-.2377696-.1376452-.01518-.00269-.036909-.00976-.048294-.015707-.011385-.00595-.034673-.013087-.051751-.015849-.017078-.00276-.052799-.00863-.079364-.013039l-.048294-.00803-.079344.00433-.079364.00431-.051751.016718c-.028463.00919-.078852.02491-.1119912.034932-.033139.010022-.076616.02862-.096608.04132-.054657.03472-.065514.039657-.077303.035134l-.010795-.00414v-.027816-.027816l-.013807-.013807-.013786-.013787h-.0789197-.0788993l-.0194266.00764-.0194063.00766-.14055574.00123-.14055523.00123-.0170815.019851-.0170819.019851.004548.036347c.0025.019991.004634.1118491.004791.204133.00015648.092284.003216.1816758.006833.1986345l.00657.030828-.0115025.025532-.0115024.025512.0120684.031596.0120482.031576-.004993.1087173c-.002746.059791-.004782.1226901-.004508.1397678.006994.4631.0154002.7901172.0209632.8151568l.005579.025087-.005822.036892c-.003208.020289-.005008.095941-.004003.1681094l.001819.1312168.009926.019952c.005454.01098.0191712.023868.0304842.028624l.0205587.00865.0174657-.00665.0174656-.00663.18858657.00388.1886064.00388.01316-.00703.01318-.00706.01124-.038672.011239-.038652-.00548-.059493c-.00806-.087696-.00918-.140371-.013544-.6321286l-.00398-.4484133.0076-.031151c.00418-.017127.016371-.049762.027108-.072532.010738-.02277.027366-.058492.036933-.079365.00957-.020873.036501-.061427.059857-.090139l.042452-.052216.072693-.037499.072693-.037499h.083974.083953l.030909.012655c.1219802.049934.1944654.1465964.1935187.2580469-.0002739.032118.00457.2706193.00954.4710744.00137.055029.0003521.1373053-.00222.1828462-.00458.080871-.00162.172297.015687.4848614l.00851.153635.015141.015162.015161.015141.088764.00441c.048821.00242.092212.00653.096426.00914.00421.00261.024155-.0000391.044331-.00592.020176-.00587.05522-.010274.077869-.0098.022648.0004695.062077.00127.087612.00178l.046434.0009076.01787-.01789.017891-.017891-.00137-.2063565c-.00284-.4310539.00125-1.0775145.00707-1.1188697l.00608-.043099.020781-.036327c.011432-.019982.046682-.06161.078334-.092504l.057552-.056178.030868-.00782c.016976-.00431.042438-.012834.056582-.018921l.025713-.011058.063981.0009115c.1202093.00171.2095549.043682.2455322.1153479.00775.015434.018856.032016.024683.036852.00583.00484.016877.025594.024561.046131l.013989.037358.01124.1155497c.014083.1446773.016634.2261037.019083.6089219l.00196.3070482.011523.1207455c.00633.066413.012295.1375334.013261.1580218l.00176.037236.019467.014515.019467.014494.049527-.0003521c.027245-.0001955.093004-.00107.1461349-.00196.05313-.000888.1301856.0003521.1712416.00273l.074654.00433.019548-.00809c.010751-.00445.025771-.014832.033375-.023066l.013827-.014979.00422-.037944c.00542-.048585.00455-.1759573-.00548-.7969634l-.00244-.151816-.00873-.032991-.00871-.033011.00487-.02909c.00752-.044931.0046-.133578-.010006-.3051075-.0096778-.1137228-.0168506-.1608429-.0294061-.1932098-.0221084-.0569944-.070113-.1528378-.0907051-.1810874-.0117403-.0161056-.032201-.0450988-.0454838-.0644258l-.024157-.0351341-.0586437-.0440083c-.1134683-.0851435-.2390831-.1385895-.3415537-.1453066-.0341552-.0022376-.077772-.0096893-.0969111-.0165562l-.03479-.012493-.096305-.00135z"/>
</svg>
